<svg width="75" height="100" viewBox="0 0 75 100" fill="none" xmlns="http://www.w3.org/2000/svg">
<g filter="url(#filter0_d)">
<path d="M30 59.6509C30 57.9034 30.2627 56.2242 30.7812 54.6597C30.9551 54.1358 30.6709 53.5699 30.1465 53.3961C29.6187 53.2203 29.0566 53.5064 28.8828 54.0308C28.2969 55.7984 28 57.689 28 59.6509C28 61.6866 28.3179 63.6426 28.9443 65.4654C29.0869 65.88 29.4751 66.1407 29.8901 66.1407C29.998 66.1407 30.1074 66.1231 30.2153 66.086C30.7378 65.9063 31.0151 65.3375 30.8359 64.815C30.2812 63.2022 30 61.4644 30 59.6509Z" fill="#6BB431"/>
</g>
<g filter="url(#filter1_d)">
<path d="M31.9996 51.2513C32.2926 51.2513 32.5836 51.1229 32.7809 50.8758C33.1139 50.4598 33.4728 50.0809 33.8473 49.7493C34.2608 49.3831 34.2994 48.7513 33.9337 48.3377C33.5675 47.9241 32.9361 47.8846 32.5221 48.2513C32.0621 48.6585 31.6236 49.1214 31.2193 49.6268C30.8741 50.0579 30.944 50.6873 31.3756 51.0321C31.5597 51.1795 31.7804 51.2513 31.9996 51.2513Z" fill="#6BB431"/>
</g>
<g filter="url(#filter2_d)">
<path d="M63.8525 41.2222C64.4048 41.2222 64.8525 40.7744 64.8525 40.2222V36.0601C64.8525 35.5078 64.4048 35.0601 63.8525 35.0601H61.4205L51.6577 10.6289C51.5059 10.249 51.1382 10 50.729 10H24.1235C23.7144 10 23.3467 10.249 23.1948 10.6289L13.432 35.0601H11C10.4478 35.0601 10 35.5078 10 36.0601V40.2222C10 40.7744 10.4478 41.2222 11 41.2222H32.5723V44.0371H30.5493C30.3052 44.0371 30.0698 44.1265 29.8872 44.2881C25.833 47.8716 23.4131 53.9893 23.4131 60.6528C23.4131 65.1509 24.5326 69.2855 26.3922 72.5812C21.7092 73.3067 15.355 74.9001 15.355 78.2163V83.2163C15.355 87.436 26.458 89.6436 37.4263 89.6436C48.3945 89.6436 59.4976 87.436 59.4976 83.2163V78.2163C59.4976 74.9001 53.1433 73.3067 48.4603 72.5812C50.3199 69.2855 51.4395 65.1509 51.4395 60.6528C51.4395 53.9893 49.0195 47.8716 44.9653 44.2881C44.7827 44.1265 44.5474 44.0371 44.3032 44.0371H42.2803V41.2222H63.8525ZM24.8008 12H50.0518L59.2665 35.0601H15.586L24.8008 12ZM57.4976 83.2163C57.4976 84.7612 50.604 87.6436 37.4263 87.6436C24.2485 87.6436 17.355 84.7612 17.355 83.2163V81.0583C21.0374 83.421 29.2672 84.6436 37.4263 84.6436C45.5853 84.6436 53.8151 83.421 57.4976 81.0583V83.2163ZM57.4976 78.2163C57.4976 79.7612 50.604 82.6436 37.4263 82.6436C24.2485 82.6436 17.355 79.7612 17.355 78.2163C17.355 77.2158 20.5365 75.4116 27.5658 74.4321C30.0998 77.9142 33.584 80.0708 37.4263 80.0708C41.2686 80.0708 44.7527 77.9142 47.2867 74.4321C54.316 75.4116 57.4976 77.2158 57.4976 78.2163ZM43.9165 46.0371C47.3813 49.2808 49.4395 54.7095 49.4395 60.6528C49.4395 65.3868 48.1262 69.6801 46.0052 72.8227C45.9921 72.843 45.9789 72.8617 45.9673 72.8831C43.7879 76.0822 40.7652 78.0708 37.4263 78.0708C34.0867 78.0708 31.0634 76.0814 28.884 72.8811C28.8731 72.8615 28.8611 72.8442 28.8491 72.8254C26.727 69.6826 25.4131 65.3881 25.4131 60.6528C25.4131 54.7095 27.4712 49.2808 30.936 46.0371H43.9165ZM34.5723 44.0371V41.2222H40.2803V44.0371H34.5723ZM12 39.2222V37.0601H60.7404C60.7415 37.0601 60.7426 37.0605 60.7437 37.0605C60.7445 37.0605 60.7453 37.0601 60.7462 37.0601H62.8525V39.2222H12Z" fill="#6BB431"/>
</g>
<defs>
<filter id="filter0_d" x="24" y="49.3442" width="10.8904" height="20.7965" filterUnits="userSpaceOnUse" color-interpolation-filters="sRGB">
<feFlood flood-opacity="0" result="BackgroundImageFix"/>
<feColorMatrix in="SourceAlpha" type="matrix" values="0 0 0 0 0 0 0 0 0 0 0 0 0 0 0 0 0 0 127 0"/>
<feOffset/>
<feGaussianBlur stdDeviation="2"/>
<feColorMatrix type="matrix" values="0 0 0 0 0.419608 0 0 0 0 0.705882 0 0 0 0 0.192157 0 0 0 1 0"/>
<feBlend mode="normal" in2="BackgroundImageFix" result="effect1_dropShadow"/>
<feBlend mode="normal" in="SourceGraphic" in2="effect1_dropShadow" result="shape"/>
</filter>
<filter id="filter1_d" x="27" y="44" width="11.1846" height="11.2513" filterUnits="userSpaceOnUse" color-interpolation-filters="sRGB">
<feFlood flood-opacity="0" result="BackgroundImageFix"/>
<feColorMatrix in="SourceAlpha" type="matrix" values="0 0 0 0 0 0 0 0 0 0 0 0 0 0 0 0 0 0 127 0"/>
<feOffset/>
<feGaussianBlur stdDeviation="2"/>
<feColorMatrix type="matrix" values="0 0 0 0 0.419608 0 0 0 0 0.705882 0 0 0 0 0.192157 0 0 0 1 0"/>
<feBlend mode="normal" in2="BackgroundImageFix" result="effect1_dropShadow"/>
<feBlend mode="normal" in="SourceGraphic" in2="effect1_dropShadow" result="shape"/>
</filter>
<filter id="filter2_d" x="0" y="0" width="74.8525" height="99.6436" filterUnits="userSpaceOnUse" color-interpolation-filters="sRGB">
<feFlood flood-opacity="0" result="BackgroundImageFix"/>
<feColorMatrix in="SourceAlpha" type="matrix" values="0 0 0 0 0 0 0 0 0 0 0 0 0 0 0 0 0 0 127 0"/>
<feOffset/>
<feGaussianBlur stdDeviation="5"/>
<feColorMatrix type="matrix" values="0 0 0 0 0.419608 0 0 0 0 0.705882 0 0 0 0 0.192157 0 0 0 1 0"/>
<feBlend mode="normal" in2="BackgroundImageFix" result="effect1_dropShadow"/>
<feBlend mode="normal" in="SourceGraphic" in2="effect1_dropShadow" result="shape"/>
</filter>
</defs>
</svg>
