<svg width="97" height="96" viewBox="0 0 97 96" fill="none" xmlns="http://www.w3.org/2000/svg">
<g filter="url(#filter0_d)">
<path d="M45.9947 86.2474H44.6865C44.3829 82.0242 42.5678 78.0517 39.5739 75.0578C36.5799 72.0638 32.6074 70.2487 28.3842 69.9451V66.1211H31.5289C31.8626 66.1211 32.1825 65.9886 32.4184 65.7527C32.6543 65.5168 32.7868 65.1968 32.7868 64.8632C32.7868 64.5296 32.6543 64.2096 32.4184 63.9737C32.1825 63.7378 31.8626 63.6053 31.5289 63.6053H22.7237C22.3901 63.6053 22.0701 63.7378 21.8342 63.9737C21.5983 64.2096 21.4658 64.5296 21.4658 64.8632C21.4658 65.1968 21.5983 65.5168 21.8342 65.7527C22.0701 65.9886 22.3901 66.1211 22.7237 66.1211H25.8684V69.9451C21.6452 70.2487 17.6727 72.0638 14.6788 75.0578C11.6848 78.0517 9.86974 82.0242 9.5661 86.2474H8.25789C7.92428 86.2474 7.60433 86.3799 7.36843 86.6158C7.13253 86.8517 7 87.1717 7 87.5053C7 87.8389 7.13253 88.1589 7.36843 88.3948C7.60433 88.6307 7.92428 88.7632 8.25789 88.7632H45.9947C46.3283 88.7632 46.6483 88.6307 46.8842 88.3948C47.1201 88.1589 47.2526 87.8389 47.2526 87.5053C47.2526 87.1717 47.1201 86.8517 46.8842 86.6158C46.6483 86.3799 46.3283 86.2474 45.9947 86.2474ZM27.1263 72.4106C30.9112 72.4116 34.5576 73.8345 37.3429 76.3973C40.1282 78.96 41.849 82.4757 42.1644 86.2474H12.0882C12.4036 82.4757 14.1245 78.96 16.9097 76.3973C19.695 73.8345 23.3414 72.4116 27.1263 72.4106Z" fill="#6BB431"/>
<path d="M89.5715 26.416L71.3949 7.39037C71.281 7.27072 71.1445 7.1747 70.9935 7.1078C70.8424 7.04089 70.6796 7.0044 70.5144 7.00042C70.3491 6.99614 70.1846 7.02449 70.0303 7.08384C69.8759 7.1432 69.7348 7.2324 69.615 7.34634L62.4261 14.2144L24.3811 50.5676C23.6152 51.2979 23.0832 52.239 22.8526 53.2719C22.6219 54.3047 22.703 55.3828 23.0856 56.3695C23.4682 57.3562 24.135 58.2071 25.0015 58.8146C25.8681 59.422 26.8955 59.7586 27.9535 59.7817H28.0793C29.4557 59.7837 30.7792 59.2515 31.7712 58.2974L44.1992 46.4291C44.5502 47.1062 44.9971 47.729 45.5263 48.2782L54.3945 57.5678C55.2522 58.4681 56.2794 59.1899 57.4171 59.6919C58.5547 60.1938 59.7804 60.4658 61.0236 60.4924H61.2437C63.6778 60.4986 66.0189 59.5581 67.7722 57.8697L77.0617 48.9952C78.0424 48.0351 78.6204 46.7374 78.6781 45.3662C78.718 44.6479 78.6102 43.9291 78.3614 43.2541C78.1126 42.579 77.728 41.9622 77.2315 41.4416C76.5252 40.7114 75.6121 40.2154 74.6151 40.0202L77.1938 37.5547C78.3051 36.5058 79.0223 35.1069 79.2253 33.5923L80.5901 35.02C80.8213 35.2593 81.138 35.3973 81.4707 35.4037C81.7937 35.4041 82.1044 35.2802 82.3386 35.0578L89.5275 28.1897C89.7677 27.9598 89.9072 27.6443 89.9154 27.3119C89.9237 26.9796 89.8 26.6575 89.5715 26.416ZM71.7974 25.8688L75.5711 29.8375C76.3377 30.6402 76.7544 31.7143 76.7297 32.824C76.7049 33.9337 76.2407 34.9882 75.4391 35.7559L69.659 41.2718L60.3569 50.1462C60.2291 50.258 60.1253 50.3946 60.0517 50.5476C59.9781 50.7006 59.9362 50.8669 59.9286 51.0365C59.921 51.2062 59.9478 51.3756 60.0075 51.5346C60.0671 51.6936 60.1583 51.8388 60.2756 51.9616C60.3928 52.0844 60.5338 52.1822 60.6898 52.2491C60.8459 52.3159 61.0139 52.3505 61.1837 52.3507C61.3535 52.3509 61.5216 52.3168 61.6778 52.2503C61.834 52.1838 61.9752 52.0864 62.0928 51.9639L71.4012 43.0705C72.2188 42.3032 74.3258 42.0391 75.4013 43.1712C75.6619 43.4459 75.8629 43.7716 75.9916 44.1276C76.1204 44.4837 76.1743 44.8626 76.1498 45.2404C76.126 45.9687 75.8271 46.6609 75.3133 47.1776L66.0174 56.0583C65.36 56.6916 64.5837 57.1885 63.7333 57.5205C62.8829 57.8524 61.9753 58.0127 61.0627 57.9923C60.15 57.9718 59.2505 57.7709 58.4158 57.4012C57.5812 57.0315 56.828 56.5003 56.1996 55.8382L56.1555 55.7816C55.6137 55.2272 55.1887 54.5696 54.9056 53.848C54.6226 53.1263 54.4872 52.3551 54.5077 51.5802C54.5981 49.642 55.4315 47.8131 56.8348 46.4732C56.9626 46.3613 57.0664 46.2248 57.14 46.0718C57.2136 45.9188 57.2555 45.7524 57.2631 45.5828C57.2707 45.4132 57.2438 45.2438 57.1842 45.0848C57.1246 44.9258 57.0334 44.7805 56.9161 44.6577C56.7988 44.535 56.6579 44.4372 56.5019 44.3703C56.3458 44.3034 56.1778 44.2688 56.008 44.2686C55.8382 44.2684 55.6701 44.3026 55.5139 44.3691C55.3576 44.4356 55.2165 44.533 55.0989 44.6555C53.2266 46.4231 52.1166 48.8506 52.0045 51.423C50.9804 50.3195 50.4294 48.8586 50.4698 47.3537C50.5526 45.4038 51.3918 43.5628 52.8095 42.2215C52.9373 42.1097 53.0411 41.9731 53.1147 41.8201C53.1883 41.6671 53.2302 41.5008 53.2378 41.3311C53.2454 41.1615 53.2186 40.9921 53.159 40.8331C53.0993 40.6741 53.0081 40.5289 52.8909 40.4061C52.7736 40.2833 52.6327 40.1855 52.4766 40.1186C52.3205 40.0517 52.1525 40.0172 51.9827 40.0169C51.8129 40.0167 51.6448 40.0509 51.4886 40.1174C51.3324 40.1839 51.1912 40.2813 51.0736 40.4038C49.1967 42.1765 48.0845 44.6109 47.9729 47.1902L47.344 46.5235C46.779 45.9947 46.3648 45.3252 46.1438 44.5836C45.9228 43.842 45.9028 43.055 46.0861 42.3032C46.5541 40.6383 47.4907 39.1429 48.7843 37.9949C49.0087 37.7611 49.1342 37.4496 49.1346 37.1255C49.135 36.8013 49.0103 36.4896 48.7864 36.2552C48.5625 36.0207 48.2568 35.8818 47.933 35.8673C47.6092 35.8528 47.2923 35.9638 47.0484 36.1773C45.3954 37.6694 44.2075 39.6063 43.6269 41.7561C43.4874 42.3747 43.4324 43.0094 43.4634 43.6429L43.3942 43.6932L30.0353 56.486C29.4882 56.9869 28.7666 57.2535 28.0252 57.2288C27.2838 57.204 26.5816 56.8897 26.0691 56.3534C25.5566 55.8171 25.2747 55.1013 25.2836 54.3596C25.2926 53.6178 25.5917 52.9091 26.117 52.3853L63.2563 16.9063L71.7974 25.8688ZM81.5147 32.3973L77.4139 28.1016L73.6403 24.1267L65.074 15.1767L70.42 10.0382L86.8544 27.2399L81.5147 32.3973Z" fill="#6BB431"/>
</g>
<defs>
<filter id="filter0_d" x="0" y="0" width="96.9158" height="95.7632" filterUnits="userSpaceOnUse" color-interpolation-filters="sRGB">
<feFlood flood-opacity="0" result="BackgroundImageFix"/>
<feColorMatrix in="SourceAlpha" type="matrix" values="0 0 0 0 0 0 0 0 0 0 0 0 0 0 0 0 0 0 127 0"/>
<feOffset/>
<feGaussianBlur stdDeviation="3.5"/>
<feColorMatrix type="matrix" values="0 0 0 0 0.419608 0 0 0 0 0.705882 0 0 0 0 0.192157 0 0 0 1 0"/>
<feBlend mode="normal" in2="BackgroundImageFix" result="effect1_dropShadow"/>
<feBlend mode="normal" in="SourceGraphic" in2="effect1_dropShadow" result="shape"/>
</filter>
</defs>
</svg>
