<svg width="22" height="18" viewBox="0 0 22 18" fill="none" xmlns="http://www.w3.org/2000/svg">
<path d="M8.56268 11.6372C8.56389 11.6362 8.56462 11.6349 8.56534 11.6337L19.9307 0.929299C20.1569 0.715772 20.1569 0.368648 19.9304 0.154893C19.711 -0.0515548 19.3282 -0.0517831 19.1085 0.155121L15.8021 3.26987C14.1604 2.41577 12.5172 1.97798 10.9109 1.97798C4.82878 1.97798 0.292347 8.08051 0.102015 8.34017C-0.0340051 8.52606 -0.0340051 8.77567 0.102015 8.96157C0.185422 9.0753 2.05455 11.6054 4.99463 13.4491L1.89113 16.3724C1.66492 16.5862 1.66492 16.9329 1.89137 17.1468C2.00121 17.2498 2.14741 17.3069 2.3021 17.3069C2.45752 17.3069 2.60324 17.2498 2.71307 17.1464L8.55904 11.6401C8.56025 11.6392 8.56146 11.6385 8.56268 11.6372ZM5.83499 12.6575C3.56605 11.2818 1.89501 9.37789 1.30389 8.65121C2.25482 7.48652 6.1742 3.07256 10.9109 3.07256C12.2243 3.07256 13.5787 3.41101 14.9462 4.07648L13.6408 5.3058C12.8605 4.73853 11.9115 4.42772 10.9109 4.42772C8.43878 4.42772 6.42708 6.32228 6.42708 8.65075C6.42708 9.59415 6.75707 10.4878 7.3591 11.222L5.83499 12.6575ZM7.5892 8.65075C7.5892 6.92587 9.07936 5.5223 10.9107 5.5223C11.6005 5.5223 12.257 5.72144 12.8106 6.08729L8.18856 10.4405C7.80062 9.91936 7.5892 9.30115 7.5892 8.65075Z" fill="#B1B9C2"/>
<path d="M10.911 11.7793C10.5805 11.7793 10.2582 11.7325 9.95081 11.6451L9.05273 12.4907C9.62882 12.7396 10.2582 12.8744 10.911 12.8744C13.3828 12.8744 15.3948 10.9796 15.3948 8.65112C15.3948 8.03634 15.252 7.44326 14.9877 6.90088L14.0894 7.74699C14.1827 8.03634 14.2324 8.33985 14.2324 8.65112C14.2324 10.376 12.7423 11.7793 10.911 11.7793Z" fill="#B1B9C2"/>
<path d="M21.7195 8.33953C21.6436 8.23631 20.0996 6.15585 17.6425 4.3999L16.8108 5.18322C18.6579 6.47899 20.0009 8.01502 20.5181 8.65034C19.5671 9.81504 15.6485 14.229 10.9108 14.229C9.90557 14.229 8.8756 14.0289 7.83471 13.6375L6.95361 14.4676C8.28278 15.0315 9.6088 15.3236 10.9108 15.3236C16.9888 15.3236 21.5294 9.22127 21.7197 8.96139C21.8557 8.77572 21.8557 8.52611 21.7195 8.33953Z" fill="#B1B9C2"/>
</svg>
