<svg width="117" height="14" viewBox="0 0 117 14" fill="none" xmlns="http://www.w3.org/2000/svg">
<path fill-rule="evenodd" clip-rule="evenodd" d="M114.443 7.73684H74L0.751979 7.73687C0.300792 7.73687 0 7.44213 0 7.00003C0 6.55792 0.300792 6.26318 0.751979 6.26318L74 6.26316H114.443L109.33 1.25263C109.029 0.957893 109.029 0.51579 109.33 0.221053C109.631 -0.0736842 110.082 -0.0736842 110.383 0.221053L116.774 6.48421C117.075 6.77895 117.075 7.22105 116.774 7.51579L110.383 13.7789C110.232 13.9263 110.007 14 109.856 14C109.706 14 109.48 13.9263 109.33 13.7789C109.029 13.4842 109.029 13.0421 109.33 12.7474L114.443 7.73684Z" fill="white"/>
</svg>
